<mxfile host="Electron" modified="2024-05-02T17:29:01.374Z" agent="Mozilla/5.0 (X11; Linux x86_64) AppleWebKit/537.36 (KHTML, like Gecko) draw.io/22.0.3 Chrome/114.0.5735.289 Electron/25.8.4 Safari/537.36" etag="OxchwAM4pDnuBqETJzoI" version="22.0.3" type="device">
  <diagram name="第 1 页" id="FjegeY91UVyLgFfhUFoo">
    <mxGraphModel dx="1114" dy="880" grid="0" gridSize="10" guides="1" tooltips="1" connect="1" arrows="1" fold="1" page="1" pageScale="1" pageWidth="4681" pageHeight="3300" math="0" shadow="0">
      <root>
        <mxCell id="0" />
        <mxCell id="1" parent="0" />
        <mxCell id="C5bYXWRNWK2AONIb-sZC-12" style="edgeStyle=orthogonalEdgeStyle;rounded=0;orthogonalLoop=1;jettySize=auto;html=1;exitX=1;exitY=0.5;exitDx=0;exitDy=0;entryX=0;entryY=0.5;entryDx=0;entryDy=0;" edge="1" parent="1" source="C5bYXWRNWK2AONIb-sZC-2" target="C5bYXWRNWK2AONIb-sZC-4">
          <mxGeometry relative="1" as="geometry" />
        </mxCell>
        <mxCell id="C5bYXWRNWK2AONIb-sZC-2" value="gem5跑一次全流程生成bbv文件" style="rounded=1;whiteSpace=wrap;html=1;" vertex="1" parent="1">
          <mxGeometry x="240" y="310" width="120" height="60" as="geometry" />
        </mxCell>
        <mxCell id="C5bYXWRNWK2AONIb-sZC-3" value="耗时很长" style="text;html=1;strokeColor=none;fillColor=none;align=center;verticalAlign=middle;whiteSpace=wrap;rounded=0;" vertex="1" parent="1">
          <mxGeometry x="270" y="390" width="60" height="30" as="geometry" />
        </mxCell>
        <mxCell id="C5bYXWRNWK2AONIb-sZC-13" style="edgeStyle=orthogonalEdgeStyle;rounded=0;orthogonalLoop=1;jettySize=auto;html=1;exitX=1;exitY=0.5;exitDx=0;exitDy=0;entryX=0;entryY=0.5;entryDx=0;entryDy=0;" edge="1" parent="1" source="C5bYXWRNWK2AONIb-sZC-4" target="C5bYXWRNWK2AONIb-sZC-6">
          <mxGeometry relative="1" as="geometry" />
        </mxCell>
        <mxCell id="C5bYXWRNWK2AONIb-sZC-4" value="SimPoint得到前阶段生成的文件，分析并计算出具体的simpoint" style="rounded=1;whiteSpace=wrap;html=1;" vertex="1" parent="1">
          <mxGeometry x="450" y="310" width="120" height="60" as="geometry" />
        </mxCell>
        <mxCell id="C5bYXWRNWK2AONIb-sZC-14" style="edgeStyle=orthogonalEdgeStyle;rounded=0;orthogonalLoop=1;jettySize=auto;html=1;exitX=1;exitY=0.5;exitDx=0;exitDy=0;entryX=0;entryY=0.5;entryDx=0;entryDy=0;" edge="1" parent="1" source="C5bYXWRNWK2AONIb-sZC-6" target="C5bYXWRNWK2AONIb-sZC-8">
          <mxGeometry relative="1" as="geometry" />
        </mxCell>
        <mxCell id="C5bYXWRNWK2AONIb-sZC-6" value="gem5跑全流程，在每个simpoint处打下checkpoint" style="rounded=1;whiteSpace=wrap;html=1;" vertex="1" parent="1">
          <mxGeometry x="640" y="310" width="120" height="60" as="geometry" />
        </mxCell>
        <mxCell id="C5bYXWRNWK2AONIb-sZC-7" value="耗时很长" style="text;html=1;strokeColor=none;fillColor=none;align=center;verticalAlign=middle;whiteSpace=wrap;rounded=0;" vertex="1" parent="1">
          <mxGeometry x="670" y="390" width="60" height="30" as="geometry" />
        </mxCell>
        <mxCell id="C5bYXWRNWK2AONIb-sZC-8" value="选择性的将gem5从各个simpoint处恢复，并进行一个interval长度的执行" style="rounded=1;whiteSpace=wrap;html=1;" vertex="1" parent="1">
          <mxGeometry x="830" y="310" width="120" height="60" as="geometry" />
        </mxCell>
        <mxCell id="C5bYXWRNWK2AONIb-sZC-9" value="耗时短" style="text;html=1;strokeColor=none;fillColor=none;align=center;verticalAlign=middle;whiteSpace=wrap;rounded=0;" vertex="1" parent="1">
          <mxGeometry x="860" y="390" width="60" height="30" as="geometry" />
        </mxCell>
        <mxCell id="C5bYXWRNWK2AONIb-sZC-10" value="gem5 结合 SimPoint 工作流程" style="text;html=1;strokeColor=none;fillColor=none;align=center;verticalAlign=middle;whiteSpace=wrap;rounded=0;fontSize=16;" vertex="1" parent="1">
          <mxGeometry x="482" y="240" width="240" height="30" as="geometry" />
        </mxCell>
      </root>
    </mxGraphModel>
  </diagram>
</mxfile>
